<svg width="2141" height="2367" viewBox="0 0 2141 2367" fill="none" xmlns="http://www.w3.org/2000/svg">
<rect width="2141" height="2367" fill="black"/>
<g clip-path="url(#clip0_0_1)">
<g clip-path="url(#clip1_0_1)">
<g clip-path="url(#clip2_0_1)">
<g clip-path="url(#clip3_0_1)">
<g clip-path="url(#clip4_0_1)">
<g clip-path="url(#clip5_0_1)">
<g clip-path="url(#clip6_0_1)">
<g clip-path="url(#clip7_0_1)">
<g clip-path="url(#clip8_0_1)">
<path d="M456.554 913.786C430.296 1087.29 466.829 1259.03 556.804 1384.92C625.972 1481.66 722.403 1544.2 828.36 1561.01C940.104 1578.74 1049.86 1552.36 1137.45 1486.76C1162.02 1468.38 1183.91 1447.54 1202.92 1424.78C1159.18 1444.48 1108.16 1450.31 1052.81 1441.52C822.179 1404.93 665.576 1170.23 703.723 918.36C722.107 796.859 790.016 686.702 894.911 608.119C1028.13 508.339 1208.92 467.677 1390.96 496.551C1538.08 519.884 1738.77 616.723 1894.08 803.085C1894.08 803.085 1444.6 8.7732 789.524 392.923C578.298 516.781 479.171 764.277 456.554 913.786Z" fill="white"/>
<path d="M1736.78 1508.46C1769.44 1336.08 1739.24 1163.07 1653.97 1033.8C1588.41 934.439 1494.36 868.228 1389.09 847.353C1278.09 825.31 1167.43 847.434 1077.5 909.635C1052.26 927.024 1029.65 946.992 1009.78 969.016C1054.21 951.002 1105.43 947.174 1160.4 958.074C1389.52 1003.55 1537.37 1244.12 1489.99 1494.37C1467.14 1615.05 1395.21 1722.54 1287.48 1797C1150.7 1891.54 968.508 1925.23 787.654 1889.32C641.542 1860.33 444.547 1755.81 296.211 1563.59C296.211 1563.59 716.084 2374.7 1384.86 2016.08C1600.51 1900.48 1708.65 1657 1736.78 1508.46Z" fill="white"/>
<path d="M815.231 1863.57C984.727 1890.45 1152.47 1853.05 1275.46 1760.93C1369.96 1690.12 1431.06 1591.41 1447.49 1482.95C1464.79 1368.58 1439.05 1256.21 1374.94 1166.56C1356.99 1141.41 1336.63 1119.01 1314.39 1099.52C1333.66 1144.3 1339.33 1196.54 1330.75 1253.18C1295 1489.27 1065.75 1649.58 819.659 1610.55C700.986 1591.73 593.356 1522.2 516.629 1414.84C419.155 1278.47 379.413 1093.38 407.62 907.036C430.414 756.439 525.014 550.995 707.069 392.036C707.069 392.036 -68.8831 852.149 306.387 1522.72C427.383 1738.95 669.158 1840.4 815.231 1863.57Z" fill="white"/>
<path d="M1892.05 913.282C1779.1 692.545 1541.25 581.824 1396.14 553.03C1227.76 519.602 1058.74 550.511 932.448 637.819C835.388 704.937 770.707 801.191 750.295 908.95C728.761 1022.59 750.374 1135.85 811.157 1227.92C828.144 1253.75 847.651 1276.9 869.146 1297.25C851.548 1251.77 847.808 1199.34 858.477 1143.07C902.903 908.527 1137.91 757.184 1382.36 805.684C1500.26 829.078 1605.26 902.724 1677.99 1013C1770.36 1153.02 1803.24 1339.5 1768.2 1524.64C1739.85 1674.21 1637.77 1875.86 1449.97 2027.69C1449.97 2027.69 2242.34 1597.88 1892.05 913.282Z" fill="white"/>
</g>
</g>
</g>
</g>
</g>
</g>
</g>
</g>
</g>
<defs>
<clipPath id="clip0_0_1">
<rect width="9501" height="1809" fill="white" transform="translate(-7486 288)"/>
</clipPath>
<clipPath id="clip1_0_1">
<rect width="9501" height="1809" fill="white" transform="translate(-7491.76 293.297)"/>
</clipPath>
<clipPath id="clip2_0_1">
<rect width="9445.37" height="1819.59" fill="white" transform="translate(-7463.94 288.003)"/>
</clipPath>
<clipPath id="clip3_0_1">
<rect width="9445.37" height="1819.59" fill="white" transform="translate(-7463.94 288.003)"/>
</clipPath>
<clipPath id="clip4_0_1">
<rect width="9445.37" height="1819.59" fill="white" transform="translate(-7463.94 288.003)"/>
</clipPath>
<clipPath id="clip5_0_1">
<rect width="9445.37" height="1819.59" fill="white" transform="translate(-7463.94 288.003)"/>
</clipPath>
<clipPath id="clip6_0_1">
<rect width="9445.37" height="1819.59" fill="white" transform="translate(-7463.94 288.003)"/>
</clipPath>
<clipPath id="clip7_0_1">
<rect width="9445.37" height="1819.59" fill="white" transform="translate(-7463.94 288.003)"/>
</clipPath>
<clipPath id="clip8_0_1">
<rect width="1777.54" height="1819.59" fill="white" transform="translate(203.89 288.003)"/>
</clipPath>
</defs>
</svg>
