<svg xmlns="http://www.w3.org/2000/svg" version="1.1" xmlns:xlink="http://www.w3.org/1999/xlink" xmlns:svgjs="http://svgjs.dev/svgjs" width="1000" height="186" viewBox="0 0 1000 186"><g transform="matrix(1,0,0,1,-0.6060606060606233,0.5445936821001283)"><svg viewBox="0 0 396 74" data-background-color="#ffffff" preserveAspectRatio="xMidYMid meet" height="186" width="1000" xmlns="http://www.w3.org/2000/svg" xmlns:xlink="http://www.w3.org/1999/xlink"><g id="tight-bounds" transform="matrix(1,0,0,1,0.2400000000000091,-0.21652578727787386)"><svg viewBox="0 0 395.52 74.43317860695853" height="74.43317860695853" width="395.52"><g><svg viewBox="0 0 505.6584310505498 95.16020507812499" height="74.43317860695853" width="395.52"><g><svg viewBox="0 0 505.6584310505498 95.16020507812499" height="95.16020507812499" width="505.6584310505498"><g id="textblocktransform"><svg viewBox="0 0 505.6584310505498 95.16020507812499" height="95.16020507812499" width="505.6584310505498" id="textblock"><g><svg viewBox="0 0 505.6584310505498 95.16020507812499" height="95.16020507812499" width="505.6584310505498"><g><svg><g></g><g></g></svg></g><g><svg><g><svg></svg></g><g></g></svg></g><g id="text-0"><svg viewBox="0 0 505.6584310505498 95.16020507812499" height="95.16020507812499" width="505.6584310505498"><g transform="matrix(1,0,0,1,0,19.861254572576197)"><svg width="395.52" viewBox="3.0799999237060547 -38.66999816894531 279.7200012207031 39.209999084472656" height="55.437695932972595" data-palette-color="#ffffff"><path d="M3.08-5.08L7.2-11.35Q9.28-10.18 11.41-9.24 13.55-8.3 15.84-7.65 18.14-7.01 20.67-6.67 23.19-6.32 26.05-6.32L26.05-6.32Q29.49-6.32 31.91-6.77 34.33-7.23 35.85-8.02 37.38-8.81 38.07-9.91 38.77-11.01 38.77-12.3L38.77-12.3Q38.77-14.38 37.04-15.59 35.3-16.8 31.69-16.8L31.69-16.8Q30.1-16.8 28.34-16.59 26.59-16.38 24.79-16.14 23-15.89 21.25-15.69 19.51-15.48 17.97-15.48L17.97-15.48Q15.41-15.48 13.05-16.14 10.69-16.8 8.87-18.12 7.06-19.43 5.98-21.41 4.91-23.39 4.91-26.03L4.91-26.03Q4.91-27.59 5.33-29.13 5.76-30.66 6.7-32.07 7.64-33.47 9.13-34.68 10.62-35.89 12.73-36.77 14.84-37.65 17.61-38.15 20.39-38.65 23.93-38.65L23.93-38.65Q26.49-38.65 29.08-38.37 31.67-38.09 34.12-37.57 36.57-37.06 38.84-36.34 41.11-35.62 43.07-34.74L43.07-34.74 39.67-28.49Q38.06-29.2 36.21-29.8 34.35-30.4 32.32-30.83 30.3-31.27 28.14-31.53 25.98-31.79 23.73-31.79L23.73-31.79Q20.53-31.79 18.47-31.32 16.41-30.86 15.19-30.14 13.96-29.42 13.49-28.53 13.01-27.64 13.01-26.76L13.01-26.76Q13.01-25.05 14.55-23.96 16.09-22.88 19.24-22.88L19.24-22.88Q20.51-22.88 22.16-23.06 23.8-23.24 25.62-23.46 27.44-23.68 29.33-23.86 31.23-24.05 33.01-24.05L33.01-24.05Q36.38-24.05 38.98-23.29 41.58-22.53 43.33-21.13 45.09-19.73 46-17.74 46.9-15.75 46.9-13.28L46.9-13.28Q46.9-9.99 45.37-7.41 43.85-4.83 41.03-3.06 38.21-1.29 34.23-0.38 30.25 0.54 25.37 0.54L25.37 0.54Q22.14 0.54 19.07 0.13 15.99-0.27 13.17-1.01 10.35-1.76 7.8-2.8 5.25-3.83 3.08-5.08L3.08-5.08ZM55.39 0L55.39-38.16 63.13-38.16 63.13-28.2 86.86-28.2 86.86-38.16 94.63-38.16 94.63 0 86.86 0 86.86-21.58 63.13-21.58 63.13 0 55.39 0ZM103.22-19.19L103.22-19.19Q103.22-23.51 104.8-27.1 106.39-30.69 109.26-33.26 112.13-35.84 116.14-37.26 120.16-38.67 125.04-38.67L125.04-38.67Q129.9-38.67 133.93-37.26 137.96-35.84 140.83-33.26 143.7-30.69 145.28-27.1 146.87-23.51 146.87-19.19L146.87-19.19Q146.87-14.84 145.28-11.22 143.7-7.59 140.83-4.98 137.96-2.37 133.93-0.92 129.9 0.54 125.04 0.54L125.04 0.54Q120.16 0.54 116.14-0.92 112.13-2.37 109.26-4.98 106.39-7.59 104.8-11.22 103.22-14.84 103.22-19.19ZM110.96-19.19L110.96-19.19Q110.96-16.24 112.02-13.87 113.08-11.5 114.97-9.83 116.87-8.15 119.44-7.25 122.02-6.35 125.04-6.35L125.04-6.35Q128.07-6.35 130.65-7.25 133.22-8.15 135.1-9.83 136.98-11.5 138.06-13.87 139.13-16.24 139.13-19.19L139.13-19.19Q139.13-22.14 138.06-24.49 136.98-26.83 135.1-28.45 133.22-30.08 130.65-30.93 128.07-31.79 125.04-31.79L125.04-31.79Q122.02-31.79 119.44-30.93 116.87-30.08 114.97-28.45 113.08-26.83 112.02-24.49 110.96-22.14 110.96-19.19ZM155.46 0L155.46-38.16 175.58-38.16Q179.97-38.16 183.2-37.21 186.42-36.25 188.54-34.46 190.67-32.67 191.7-30.08 192.74-27.49 192.74-24.24L192.74-24.24Q192.74-21.19 191.72-18.6 190.69-16.02 188.58-14.12 186.47-12.23 183.24-11.17 180.02-10.11 175.63-10.11L175.63-10.11 163.2-10.13 163.2 0 155.46 0ZM163.2-16.82L175.77-16.82Q177.97-16.82 179.62-17.35 181.27-17.87 182.38-18.84 183.49-19.8 184.04-21.18 184.59-22.56 184.59-24.24L184.59-24.24Q184.59-27.64 182.38-29.53 180.17-31.42 175.77-31.42L175.77-31.42 163.2-31.42 163.2-16.82ZM201.19 0L201.19-38.16 221.3-38.16Q225.7-38.16 228.92-37.21 232.14-36.25 234.27-34.46 236.39-32.67 237.43-30.08 238.47-27.49 238.47-24.24L238.47-24.24Q238.47-21.19 237.44-18.6 236.42-16.02 234.3-14.12 232.19-12.23 228.97-11.17 225.75-10.11 221.35-10.11L221.35-10.11 208.93-10.13 208.93 0 201.19 0ZM208.93-16.82L221.5-16.82Q223.7-16.82 225.34-17.35 226.99-17.87 228.1-18.84 229.21-19.8 229.76-21.18 230.31-22.56 230.31-24.24L230.31-24.24Q230.31-27.64 228.1-29.53 225.89-31.42 221.5-31.42L221.5-31.42 208.93-31.42 208.93-16.82ZM258.61 0L258.61-9.45 241.93-38.16 250.7-38.16 262.44-16.46 274.04-38.16 282.8-38.16 266.34-9.5 266.34 0 258.61 0Z" opacity="1" transform="matrix(1,0,0,1,0,0)" fill="#ffffff" class="wordmark-text-0" data-fill-palette-color="primary"></path></svg></g><g><svg xmlns="http://www.w3.org/2000/svg" xmlns:xlink="http://www.w3.org/1999/xlink" version="1.0" x="410.49783203124997" y="0" viewBox="4.667734146118164 4.6859588623046875 90.3050308227539 90.30465698242188" enable-background="new 0 0 100 100" xml:space="preserve" height="95.16020507812499" width="95.1605990192998" class="icon-s-0" data-fill-palette-color="accent" id="s-0"><path d="M17.504 35.743c-1.334 8.611 0.522 17.134 5.093 23.382 3.514 4.801 8.413 7.905 13.796 8.739 5.677 0.88 11.253-0.429 15.703-3.685 1.248-0.912 2.36-1.946 3.326-3.076-2.222 0.978-4.814 1.267-7.626 0.831-11.717-1.816-19.673-13.464-17.735-25.964 0.934-6.03 4.384-11.497 9.713-15.397 6.768-4.952 15.953-6.97 25.201-5.537 7.474 1.158 17.67 5.964 25.56 15.213 0 0-22.835-39.421-56.115-20.356C23.689 16.04 18.653 28.323 17.504 35.743z" fill="#ffffff" data-fill-palette-color="accent"></path><path d="M82.544 65.256c1.659-8.555 0.125-17.141-4.207-23.557-3.331-4.931-8.109-8.217-13.457-9.253-5.639-1.094-11.261 0.004-15.83 3.091-1.282 0.863-2.431 1.854-3.44 2.947 2.257-0.894 4.859-1.084 7.652-0.543 11.64 2.257 19.151 14.196 16.744 26.616-1.161 5.989-4.815 11.324-10.288 15.019-6.949 4.692-16.205 6.364-25.393 4.582C26.902 82.719 16.894 77.532 9.358 67.992c0 0 21.331 40.255 55.307 22.457C75.621 84.712 81.115 72.628 82.544 65.256z" fill="#ffffff" data-fill-palette-color="accent"></path><path d="M35.726 82.88c8.611 1.334 17.133-0.522 23.381-5.094 4.801-3.514 7.905-8.413 8.74-13.796 0.879-5.676-0.429-11.253-3.686-15.702-0.912-1.248-1.946-2.36-3.076-3.327 0.979 2.222 1.267 4.815 0.831 7.626-1.816 11.717-13.463 19.673-25.965 17.736-6.029-0.934-11.497-4.385-15.395-9.713-4.952-6.768-6.971-15.954-5.538-25.202 1.158-7.474 5.964-17.67 15.213-25.559 0 0-39.421 22.835-20.356 56.115C16.022 76.695 28.305 81.73 35.726 82.88z" fill="#ffffff" data-fill-palette-color="accent"></path><path d="M90.432 35.718c-5.738-10.955-17.822-16.45-25.194-17.879-8.554-1.659-17.141-0.125-23.557 4.208-4.931 3.331-8.217 8.108-9.254 13.456-1.094 5.64 0.004 11.261 3.092 15.83 0.863 1.282 1.854 2.431 2.946 3.441-0.894-2.257-1.084-4.859-0.542-7.652 2.257-11.64 14.196-19.151 26.615-16.744 5.99 1.161 11.324 4.816 15.019 10.289 4.693 6.949 6.363 16.204 4.583 25.392-1.44 7.423-6.626 17.431-16.167 24.966C67.973 91.025 108.228 69.694 90.432 35.718z" fill="#ffffff" data-fill-palette-color="accent"></path></svg></g></svg></g></svg></g></svg></g></svg></g><g></g></svg></g><defs></defs></svg><rect width="395.52" height="74.43317860695853" fill="none" stroke="none" visibility="hidden"></rect></g></svg></g></svg>